<svg version="1.0" xmlns="http://www.w3.org/2000/svg" viewBox="0 0 1600.000000 520.000000"
 preserveAspectRatio="xMidYMid meet">

<g transform="translate(0.000000,520.000000) scale(0.100000,-0.100000)"
fill="#000000" stroke="none">
<path d="M14104 5175 c-17 -13 -75 -82 -127 -153 l-96 -128 -1092 -297 c-601
-163 -1093 -296 -1095 -294 -2 1 58 77 133 167 169 205 185 239 128 270 -55
29 -71 15 -294 -264 l-210 -262 -778 -244 c-428 -134 -940 -294 -1138 -356
-197 -62 -360 -112 -362 -111 -1 2 81 111 182 242 102 132 187 252 190 267 15
65 -46 111 -109 84 -42 -18 -44 -20 -329 -391 l-252 -328 -205 -73 c-500 -180
-514 -187 -615 -296 -80 -86 -118 -180 -79 -195 25 -9 63 17 146 98 l77 77
240 80 c133 44 241 77 241 74 -1 -4 -281 -289 -623 -635 -446 -450 -628 -627
-644 -627 -12 0 -29 7 -37 16 -39 38 -29 58 334 663 365 607 374 626 334 665
-9 9 -32 16 -55 16 -35 0 -47 -7 -97 -57 -32 -32 -72 -76 -90 -98 l-31 -40 -1
60 c-2 298 -233 420 -560 296 -75 -28 -254 -129 -376 -211 l-101 -68 15 44
c18 54 10 94 -19 94 -81 0 -316 -190 -547 -443 -301 -331 -489 -568 -727 -917
-267 -391 -309 -467 -309 -555 0 -61 22 -96 55 -88 28 8 98 89 139 162 93 165
165 281 222 357 35 45 64 81 66 80 1 -2 -10 -48 -25 -102 -24 -87 -28 -117
-28 -239 1 -123 3 -147 24 -199 60 -151 195 -217 403 -195 128 13 224 41 353
103 220 105 367 218 661 508 l191 189 5 -56 c5 -62 26 -97 79 -133 48 -33 143
-27 219 14 35 19 199 167 484 435 237 224 432 406 433 405 1 -1 -25 -53 -57
-116 -128 -247 -152 -424 -73 -529 49 -64 120 -76 216 -37 159 66 292 162 533
385 159 147 174 159 174 134 0 -37 39 -104 70 -121 39 -20 130 -9 206 27 36
17 104 61 151 97 l84 66 35 -41 c64 -74 135 -66 264 30 46 34 230 216 470 465
565 585 623 644 627 641 1 -2 -54 -129 -122 -282 -150 -331 -168 -381 -169
-460 -2 -109 46 -169 135 -169 106 0 296 168 452 399 l27 39 6 -30 c3 -17 16
-44 29 -60 21 -27 28 -29 87 -29 83 1 125 22 219 113 l77 73 22 -37 c29 -46
75 -74 121 -74 122 0 238 104 398 358 57 90 104 162 106 160 1 -2 -6 -43 -17
-93 -30 -142 -14 -247 46 -296 60 -50 127 -31 221 64 38 40 268 319 510 621
242 303 448 559 458 570 17 21 17 21 7 -4 -6 -14 -68 -155 -139 -315 l-129
-289 -63 -39 c-86 -52 -117 -82 -145 -142 -29 -61 -29 -70 -3 -146 l21 -61
-67 -146 c-55 -119 -68 -156 -69 -200 -1 -45 3 -57 23 -73 47 -38 112 -14 148
54 9 18 44 104 79 192 l62 160 84 31 c126 45 254 112 338 175 l76 57 84 -9
c251 -27 473 -83 700 -176 210 -86 459 -233 602 -354 285 -242 457 -568 458
-864 0 -72 -4 -89 -35 -153 -95 -199 -376 -385 -850 -562 -277 -104 -652 -213
-981 -285 -224 -49 -316 -72 -859 -208 -253 -64 -606 -150 -785 -192 -179 -42
-400 -94 -491 -115 -403 -96 -1260 -271 -1659 -339 -515 -88 -746 -118 -1088
-142 -297 -21 -530 7 -588 72 -17 18 -17 23 -4 62 20 56 92 110 175 131 179
45 238 50 600 50 346 1 350 1 386 24 20 12 39 31 42 41 8 31 -29 78 -80 105
-95 47 -145 56 -328 56 -500 0 -862 -118 -948 -309 -28 -62 -28 -160 0 -222
42 -95 177 -166 366 -195 158 -24 562 -14 812 20 304 42 574 90 830 146 50 11
281 59 515 106 618 124 1265 275 2295 534 1108 278 1191 301 1475 396 700 235
1184 487 1339 698 130 176 84 520 -109 807 -145 215 -384 450 -610 598 -319
210 -658 334 -1087 398 l-51 8 55 90 c139 223 206 386 207 500 1 95 -23 136
-100 164 -63 24 -132 27 -159 8 -28 -21 -12 -60 55 -132 57 -61 60 -67 60
-116 0 -99 -61 -217 -214 -412 l-61 -77 -135 6 c-74 4 -138 9 -142 13 -5 5
394 896 407 910 12 12 385 94 458 101 48 4 94 14 102 20 23 19 18 75 -7 105
-40 45 -95 43 -306 -9 -101 -25 -188 -46 -193 -46 -6 0 5 19 24 43 78 95 99
164 58 187 -27 14 -32 13 -67 -15z m-396 -492 c-41 -48 -911 -1089 -972 -1165
-39 -47 -74 -87 -78 -87 -4 -1 2 25 13 57 60 174 72 321 32 399 -24 46 -101
92 -154 93 -60 0 -74 -25 -75 -134 l0 -91 -170 -235 c-158 -217 -214 -280
-251 -280 -36 0 -23 40 71 224 118 231 118 246 -3 225 l-59 -11 -28 -66 c-64
-152 -191 -307 -308 -376 -93 -55 -113 -20 -76 130 12 47 19 92 16 100 -6 16
-39 18 -65 4 -11 -5 -104 -105 -208 -222 -200 -225 -317 -342 -353 -353 -23
-7 -50 9 -50 32 0 45 70 187 321 655 154 288 287 528 294 533 7 6 257 77 556
160 299 82 767 211 1039 286 272 75 501 138 509 138 12 1 11 -2 -1 -16z
m-2460 -690 c-13 -16 -193 -210 -399 -432 -206 -223 -470 -508 -587 -635 -117
-127 -230 -244 -250 -259 -50 -38 -76 -33 -80 15 -4 51 25 101 103 178 37 36
79 83 95 105 47 68 51 137 8 148 -24 7 -112 -24 -138 -48 -17 -15 -19 -14 -40
20 -41 66 -118 86 -214 54 -34 -11 -75 -29 -92 -40 l-30 -18 -21 49 c-23 54
-57 72 -96 51 -33 -18 -109 -124 -169 -236 -96 -178 -152 -252 -377 -498 -75
-82 -147 -162 -160 -178 -27 -34 -168 -155 -225 -193 -92 -62 -166 -53 -166
22 0 20 13 64 28 97 43 89 572 1068 586 1082 8 8 2213 737 2245 742 3 1 -7
-11 -21 -26z m2512 -269 c-22 -25 -93 -63 -170 -89 -40 -14 -75 -23 -78 -21
-2 3 8 32 23 65 l28 61 105 0 c93 0 103 -2 92 -16z m-6263 -464 c62 -37 80
-105 64 -238 -23 -184 -119 -403 -292 -662 -227 -342 -544 -641 -914 -862
-139 -83 -335 -176 -400 -190 -106 -23 -179 20 -209 122 -31 106 -17 217 54
432 113 338 274 579 573 856 299 277 609 462 901 538 114 29 180 30 223 4z
m2328 -242 c57 -26 47 -81 -46 -247 -39 -69 -74 -133 -78 -141 -14 -27 -139
-126 -199 -158 -32 -17 -77 -34 -99 -38 -36 -6 -45 -3 -69 21 -24 24 -26 32
-21 75 11 94 89 212 229 346 87 84 124 111 186 135 56 22 64 22 97 7z"/>
<path d="M12213 4092 c-37 -29 -93 -124 -93 -158 0 -53 49 -74 99 -43 35 21
87 96 96 140 14 64 -50 102 -102 61z"/>
<path d="M11925 4001 c-54 -31 -78 -59 -119 -138 -22 -41 -25 -55 -16 -77 12
-33 45 -46 101 -39 56 8 119 71 148 149 27 70 26 99 -1 118 -32 23 -56 20
-113 -13z"/>
<path d="M4463 3678 c-11 -13 -42 -65 -69 -117 -26 -52 -73 -128 -104 -170
-60 -80 -207 -216 -350 -324 -76 -57 -875 -618 -941 -661 -22 -14 -35 -15 -70
-7 -153 34 -420 32 -625 -3 -41 -7 -74 -10 -74 -7 0 3 208 231 461 506 254
275 469 517 480 537 27 52 24 84 -10 119 -25 24 -38 29 -78 29 -59 0 -117 -26
-172 -76 -23 -20 -265 -291 -538 -600 -451 -514 -499 -564 -532 -570 -366 -61
-587 -141 -751 -270 -74 -58 -155 -155 -176 -211 -43 -112 37 -224 192 -269
33 -9 61 -18 63 -20 2 -2 -59 -74 -135 -161 -77 -87 -220 -250 -319 -362 -690
-783 -688 -781 -705 -856 -7 -30 -5 -38 13 -50 12 -8 39 -15 61 -15 36 0 46 6
101 63 45 46 1073 1158 1255 1357 22 24 39 30 135 45 382 59 673 173 1080 423
50 31 154 93 232 139 l142 84 124 -25 c481 -98 776 -271 902 -531 56 -113 77
-209 78 -350 3 -361 -227 -761 -558 -972 -226 -145 -517 -181 -726 -91 -115
49 -133 118 -75 287 20 58 34 113 30 123 -8 25 -51 41 -91 33 -41 -7 -97 -71
-120 -139 -13 -36 -18 -81 -18 -151 0 -90 3 -106 28 -158 31 -61 102 -131 185
-180 144 -84 365 -94 562 -25 372 130 784 487 959 828 136 266 154 485 58 718
-100 243 -392 490 -752 634 -92 37 -315 108 -340 108 -41 0 -9 28 137 121 711
448 1068 758 1169 1016 47 121 23 215 -57 221 -31 2 -44 -2 -61 -20z m-1719
-1408 c15 -5 -8 -24 -110 -92 -329 -219 -671 -371 -867 -385 l-91 -6 29 35
c17 20 108 123 204 231 l174 194 121 13 c266 27 481 32 540 10z m-1071 -153
c-10 -13 -92 -109 -183 -215 l-165 -192 -56 0 c-99 0 -189 64 -189 135 0 26
26 68 67 106 124 117 267 168 526 188 18 1 18 0 0 -22z"/>
<path d="M4684 1760 c-11 -4 -34 -24 -52 -44 -43 -50 -43 -89 2 -148 39 -50
52 -58 102 -58 50 0 74 29 74 88 0 123 -53 192 -126 162z"/>
</g>
</svg>
